# xmcd
#
# Track frame offsets: 
#        150
#        14242
#        36864
#        50662
#        61751
#        83170
#        107387
#        122212
#        135609
#        152134
#        166167
#        179403
#        197590
#        213030
#        228059
#        240801
#        256202
#        273683
#        293367
#        306920
#
# Disc length: 4276 seconds
#
# Revision: 0
# Processed by: cddbd v1.5.2PL0 Copyright (c) Steve Scherf et al.
# Submitted via: ExactAudioCopy v0.99pb3
#
DISCID=0910b214
DTITLE=Joao Neto e Frederico - Soh Modao
DYEAR=2009
DGENRE=Sertanejo
TTITLE0=Boate Azul
TTITLE1=Dama de Vermelho - Fruto Especial - Esta Noite Eu Queria Que o M
TTITLE1=undo Acabasse
TTITLE2=Revelacao
TTITLE3=Chalana
TTITLE4=Bijouteria
TTITLE5=Canoeiro - Peito Sadio
TTITLE6=O Cara Errado
TTITLE7=Sublime Renuncia
TTITLE8=De Igual Pra Igual
TTITLE9=Se Entrega Amor
TTITLE10=Saudade de Minha Terra
TTITLE11=Galopeira - Va Pro Inferno Com Seu Amor - Pedaco de Poema
TTITLE12=Brigas
TTITLE13=Pra Valer
TTITLE14=Goias eh Mais
TTITLE15=Majestade o Sabia
TTITLE16=A Sua Visita
TTITLE17=Mais Uma Noite Sem Voce - Cade Voce - Ta Faltando Amor
TTITLE18=Pagode em Brasilia
TTITLE19=Ipe Florido
EXTD=
EXTT0=
EXTT1=
EXTT2=
EXTT3=
EXTT4=
EXTT5=
EXTT6=
EXTT7=
EXTT8=
EXTT9=
EXTT10=
EXTT11=
EXTT12=
EXTT13=
EXTT14=
EXTT15=
EXTT16=
EXTT17=
EXTT18=
EXTT19=
PLAYORDER=
